# xmcd CD database file
#
# Track frame offsets:
#	150
#	12235
#	26526
#	40654
#	45057
#	57949
#	67853
#	78766
#	92305
#	104008
#	115897
#	128724
#	144792
#	157184
#	168787
#	180827
#	196099
#	207032
#	219808
#	221972
#	234478
#	246261
#	256596
#	267821
#	279059
#	292504
#	305682
#	324015
#
# Disc length: 4497 seconds
#
# Revision: 8
# Processed by: cddbd v1.5.2PL0 Copyright (c) Steve Scherf et al.
# Submitted via: CDex 1.51
#
DISCID=59118f1c
DTITLE=Howlin' Wolf - The Chess Box - 1955 to 1962, Cd 02
DYEAR=1991
DGENRE=Blues
TTITLE0=Don't Mess with My Baby (1955)
TTITLE1=Smokestack Lightnin' (1956)
TTITLE2=You Can't Be Beat (1956)
TTITLE3=Howlin' Wolf Talks #3 (1968)
TTITLE4=I Asked for Water (1956)
TTITLE5=The Natchez Burnin' (1956)
TTITLE6=Who's Been Talking (1957)
TTITLE7=Tell Me (1957)
TTITLE8=Sittin' on Top of the World (1957)
TTITLE9=I Didn't Know (1958)
TTITLE10=Moaning for My Baby (1958)
TTITLE11=Change My Way (1958)
TTITLE12=I Better Go Now (1958)
TTITLE13=Howlin' for My Darling (1959)
TTITLE14=I've Been Abused (1959)
TTITLE15=Mr. Airplane Man (alt. take) (1959)
TTITLE16=Wang Dang Doodle (1960)
TTITLE17=Back Door Man (1960)
TTITLE18=Howlin' Wolf Talks #4 (1968)
TTITLE19=Spoonful (1960)
TTITLE20=Down in the Bottom (1961)
TTITLE21=Shake for Me (1961)
TTITLE22=The Red Rooster (1961)
TTITLE23=You'll Be Mine (1961)
TTITLE24=Just Like I Treat You (1961)
TTITLE25=I Ain't Superstitious (1961)
TTITLE26=Goin' Down Slow (1961)
TTITLE27=Tail Dragger (1962)
EXTD=YEAR: 1991
EXTT0=
EXTT1=
EXTT2=
EXTT3=
EXTT4=
EXTT5=
EXTT6=
EXTT7=
EXTT8=
EXTT9=
EXTT10=
EXTT11=
EXTT12=
EXTT13=
EXTT14=
EXTT15=
EXTT16=
EXTT17=
EXTT18=
EXTT19=
EXTT20=
EXTT21=
EXTT22=
EXTT23=
EXTT24=
EXTT25=
EXTT26=
EXTT27=
PLAYORDER=
